<?xml version="1.0" ?><svg enable-background="new 0 0 515.91 728.5" height="512" id="Layer_1" version="1.1" viewBox="0 0 512.00003 512" width="512" xml:space="preserve" xmlns="http://www.w3.org/2000/svg" xmlns:cc="http://creativecommons.org/ns#" xmlns:dc="http://purl.org/dc/elements/1.1/" xmlns:inkscape="http://www.inkscape.org/namespaces/inkscape" xmlns:rdf="http://www.w3.org/1999/02/22-rdf-syntax-ns#" xmlns:sodipodi="http://sodipodi.sourceforge.net/DTD/sodipodi-0.dtd" xmlns:svg="http://www.w3.org/2000/svg"><defs id="defs7"/><g id="g6983" style="fill:#ffa633;fill-opacity:1;stroke:none" transform="translate(1.5e-5,0)"><rect height="512" id="rect2984" rx="64" ry="64" style="fill:#ffa633;fill-opacity:1;fill-rule:nonzero;stroke:none" width="512" x="0" y="0"/><g id="g3372" style="fill:#ffa633;fill-opacity:1;stroke:none" transform="matrix(15.99685,0,0,15.99685,-5338.7915,-6028.4756)"><g id="g3368" style="fill:#ffa633;fill-opacity:1;stroke:none" transform="translate(0.44642857,-0.04464286)"><path d="m 355.84375,380.40625 c -0.0699,0.0404 -0.0811,0.0614 -0.0625,0.0312 -0.67912,1.14393 -0.69662,2.65289 -1,4 a 0.4982215,0.4982215 0 0 1 0,0.0312 c -0.005,0.0197 0.005,0.0429 0,0.0625 -0.14726,1.44619 -0.62399,2.92107 -0.28125,4.3125 a 0.4982215,0.4982215 0 0 1 0.0312,0.0937 c 0.003,0.0101 -0.003,0.0212 0,0.0312 0.005,0.008 -0.005,0.0237 0,0.0312 0.006,0.009 0.0253,-0.008 0.0312,0 0.0731,0.10058 0.16238,0.1759 0.21875,0.1875 0.0403,0.008 0.11021,0.004 0.25,-0.0937 0.15127,-0.1053 0.23683,-0.31627 0.28125,-0.59375 a 0.4982215,0.4982215 0 0 1 0.0625,-0.0937 0.4982215,0.4982215 0 0 1 0,-0.0312 0.4982215,0.4982215 0 0 1 0.0312,-0.0937 0.4982215,0.4982215 0 0 1 0.0312,-0.0312 c 0.59834,-2.38691 1.00327,-4.89182 0.84375,-7.34375 -0.0204,-0.12189 -0.0428,-0.2068 -0.15625,-0.34375 -0.0753,-0.0907 -0.13704,-0.14279 -0.15625,-0.15625 -0.0192,-0.0135 0.007,-0.004 -0.0625,0 a 0.4982215,0.4982215 0 0 1 -0.0312,0 c -0.0257,0.003 -0.0158,-6.1e-4 -0.0312,0 z" id="path3366" style="fill:#ffa633;fill-opacity:1;stroke:none"/><path d="m 361.84375,381.84375 c -1.03636,0.50365 -1.56686,1.70537 -2.28125,2.6875 a 0.46681363,0.46681363 0 0 1 -0.0312,0.0937 0.46681363,0.46681363 0 0 1 -0.0312,0.0625 c -0.90569,1.60511 -2.06123,3.20738 -2.1875,5.0625 -7.1e-4,0.0105 6.5e-4,0.0208 0,0.0312 0.0138,0.27995 0.17412,0.43198 0.34375,0.46875 0.16658,0.036 0.47447,-0.0594 0.59375,-0.25 a 0.46681363,0.46681363 0 0 1 0.0312,-0.0312 0.46681363,0.46681363 0 0 1 0,-0.0312 0.46681363,0.46681363 0 0 1 0,-0.0312 c 1.646,-2.26173 2.88416,-4.92489 3.90625,-7.53125 a 0.46681363,0.46681363 0 0 1 0,-0.0312 c 0.0707,-0.17113 0.0941,-0.21493 0.0312,-0.34375 -0.0185,-0.0381 -0.21237,-0.16871 -0.3125,-0.15625 -0.0163,0.007 -0.0465,-0.008 -0.0625,0 z" id="path3364" style="fill:#ffa633;fill-opacity:1;stroke:none" transform="translate(-0.49107143,-0.26785714)"/></g><path d="m 345.66985,382.2774 c -0.16726,0.0311 -0.4161,0.1809 -0.59375,0.25 -0.62832,0.23837 -0.975,0.77698 -1.125,1.40625 -0.15274,0.64382 -0.10183,1.36084 0,2.09375 0.10181,0.73145 0.24752,1.48649 0.40625,2.0625 0.13645,0.49836 0.23415,0.7408 0.28125,0.90625 l 0,0.125 c 0,0.0545 -0.0261,0.05 -0.0625,0.0937 -0.02,0.0109 0.02,0.0625 0,0.0625 -0.0453,0.0346 -0.0999,0.0625 -0.15625,0.0625 -0.11101,0.007 -0.19778,-0.0334 -0.3125,-0.0625 -0.0782,-0.0181 -0.17995,-0.0807 -0.15625,-0.0625 -0.0363,-0.0218 -0.1013,-0.0243 -0.125,-0.0625 0,0.0146 0.0219,0.0143 0,-0.0312 -0.0254,-0.0473 -0.0537,-0.1664 -0.0937,-0.25 -0.0891,-0.18946 -0.15908,-0.40895 -0.28125,-0.6875 -0.24381,-0.55472 -0.55754,-1.23609 -0.90625,-1.875 -0.34999,-0.64145 -0.76223,-1.22354 -1.21875,-1.625 -0.22817,-0.20054 -0.50982,-0.40155 -0.78125,-0.46875 -0.26199,-0.0655 -0.57287,-0.01 -0.84375,0.125 -0.69997,0.38836 -1.09619,1.02422 -1.25,1.6875 -0.15456,0.67346 -0.0815,1.44899 0.0312,2.125 0.11454,0.67454 0.29189,1.23077 0.40625,1.6875 0.049,0.19254 0.1087,0.37235 0.125,0.46875 0,0.0955 -0.0389,0.3448 -0.0625,0.4375 -0.11818,0.40928 -0.40559,1.09375 -0.40625,1.09375 0,0 -5.45294,14.48293 6.25,13.46875 0.0964,-0.007 0.31535,-0.0625 0.40625,-0.0625 2.29827,-0.46272 4.47308,-1.15769 6.40625,-1.9375 0.3798,-0.182 0.87805,-0.36282 1.4375,-0.625 1.11885,-0.52418 2.52451,-1.19587 3.875,-1.9375 1.35103,-0.74219 2.60454,-1.533 3.5625,-2.375 0.9596,-0.84327 1.65997,-1.76731 1.53125,-2.6875 -0.20364,-1.48345 -1.18879,-2.58587 -2.5,-3.4375 -1.31613,-0.85473 -2.95728,-1.44464 -4.59375,-1.875 -1.63576,-0.43018 -3.2241,-0.78002 -4.4375,-0.96875 -0.60652,-0.0945 -1.1749,-0.122 -1.53125,-0.1875 -0.10544,-0.0181 -0.16175,-0.0443 -0.21875,-0.0625 -0.0307,-0.004 -0.0334,-0.0131 -0.0625,-0.0312 -0.0363,-0.0218 -0.1031,-0.0243 -0.125,-0.0625 -0.02,-0.0363 0,-0.0832 0,-0.125 0,-0.0163 -1.7e-4,-0.0407 0,-0.0625 l 0,-0.90625 c -0.02,-0.748 -0.064,-1.73553 -0.21875,-2.65625 -0.15637,-0.92455 -0.39754,-1.80879 -0.90625,-2.40625 -0.30235,-0.35545 -0.73038,-0.5887 -1.25,-0.625 -0.15636,-0.0182 -0.3311,-0.0309 -0.5,0 z" id="path3302" style="fill:#ffa633;fill-opacity:1;stroke:none"/></g></g><path d="m 327.06839,58.680414 c -2.7298,0.017 -5.4186,0.3174 -7.6098,0.882 -13.7078,3.539802 -26.8117,15.119902 -34.7852,30.746104 -11.8582,23.239402 -12.2786,52.551102 -1.2079,84.229022 1.7947,5.1389 2.6784,7.0333 3.2463,7.0333 0.1957,0 3.5312,-1.6627 7.4279,-3.6977 37.8567,-19.75792 60.281,-50.44232 60.2484,-82.44452 0,-13.423002 -3.6204,-24.337504 -10.2436,-30.960604 -2.8277,-2.8295 -4.0408,-3.5913 -7.3026,-4.5985 -2.6819,-0.828702 -6.2663,-1.223402 -9.7735,-1.189102 z M 120.43477,89.804118 c -3.919,0.051 -7.5241,0.2454 -10.0618,0.5954 -27.130908,3.725102 -47.973208,19.268902 -53.196208,39.689202 -2.2203,8.6804 -1.2406,21.2884 2.4519,31.755 11.7037,33.16902 43.288908,57.27132 82.137308,62.67972 9.7993,1.3641 10.2094,1.3864 22.7933,1.1548 7.6767,-0.1373 14.564,-0.6126 19.6189,-1.3538 22.2322,-3.2533 45.4167,-10.5009 68.5068,-21.4224 l 7.06762,-3.3526 -2.3439,-5.5903 c -1.28,-3.0782 -3.89502,-8.7371 -5.82532,-12.5874 -25.4184,-50.74082 -66.657,-83.95612 -112.5935,-90.666822 -4.6432,-0.6778 -12.0247,-0.9867 -18.5551,-0.9008 z M 372.81619,205.89624 c -13.5551,0.1802 -25.9675,11.0621 -29.0509,26.0019 -1.069,5.1818 -1.256,24.93639 -0.3243,33.92049 3.6891,35.5711 18.9583,73.4191 40.2674,99.80882 5.6709,7.0247 15.525,16.9714 20.1783,20.3773 7.3284,5.3638 16.4789,6.7227 25.80452,3.8401 6.6729,-2.0624 12.9633,-7.3284 16.3195,-13.6684 2.0658,-3.9052 5.3619,-14.0973 6.9954,-21.6384 3.9962,-18.44542 3.9928,-40.65872 -0.017,-59.25492 -3.0198,-14.0065 -10.5884,-32.0657 -18.3921,-43.8913 -12.78642,-19.37359 -29.55022,-33.67169 -50.09572,-42.73649 -3.5277,-1.558 -6.4052,-2.4125 -8.9618,-2.651 -0.9111,-0.085 -1.8189,-0.12 -2.7231,-0.1029 z m -60.4268,0.017 c -1.8565,-0.069 -12.4227,3.9344 -20.0153,7.6647 -12.8053,6.2886 -25.4683,15.2589 -32.4585,22.9733 -10.20942,11.26289 -20.03772,31.12709 -22.73842,46.00009 -1.1823,6.5048 -1.0055,32.2459 0.2883,41.4925 4.1317,29.55712 14.9054,57.42752 30.67242,79.39712 9.389,13.0834 23.2393,27.3197 31.3226,32.2064 8.0851,4.885 19.0081,8.7113 29.9518,10.4941 7.6509,1.2474 19.6892,0.7773 27.0125,-1.0638 8.0318,-2.0195 18.495,-5.7189 25.3532,-8.9618 5.4376,-2.5721 14.3822,-7.8586 17.6184,-10.405 1.3812,-1.0878 1.3932,-1.1461 0.2882,-1.5322 -12.4365,-4.3496 -18.4676,-8.2755 -30.403,-19.782 -23.9086,-23.0488 -42.5975,-54.5705 -53.9358,-90.97392 -6.6043,-21.2095 -9.3479,-37.9252 -9.8266,-59.7953 -0.4684,-21.38119 0.676,-30.38419 5.3911,-42.23209 1.1153,-2.8037 1.8995,-5.2419 1.7314,-5.41 -0.034,-0.034 -0.1202,-0.069 -0.2523,-0.069 z M 202.71617,310.82503 c -1.3075,0 -18.7627,33.86212 -26.3279,51.06852 -4.782,10.875 -11.1959,26.8187 -15.3087,38.0849 -3.3802,9.2586 -3.5586,10.0497 -3.3184,13.8674 0.2917,4.6568 2.1396,8.2292 5.2109,10.0978 4.4973,2.7333 31.3948,12.6938 48.3285,17.9065 15.6262,4.8095 42.4155,11.3641 46.90082,11.4687 1.546,0.034 1.4328,-0.1716 -2.61322,-4.7254 -25.0187,-28.2085 -42.5066,-65.1712 -49.1761,-103.92 -1.7295,-10.05142 -3.1915,-23.59632 -3.1915,-29.50232 0,-2.3884 -0.2315,-4.3461 -0.5044,-4.3461 z" id="rect3020" style="fill:#ffffff;fill-opacity:1;fill-rule:nonzero;stroke:none"/></svg>